PathFileType  4	(X/Y/Z) C:\Users\antoi\Documents\MyRepositories\mobilecap\ResultsAnalysis
DataRate	CameraRate	NumFrames	NumMarkers	Units	OrigDataRate	OrigDataStartFrame	OrigNumFrames
100.0	100.0	6	51	mm	100.0	99	131
Frame#	Time	r_knee			r_shank_antsup			r_ankle			r_calc			r_5meta			r_toe			L_knee			L_shank_antsup			L_ankle			L_calc			L_5meta			L_toe			r_sh2			r_sh3			r_sh4			L_sh2			L_sh3			r_thigh1			r_thigh2			r_thigh3			r_thigh4			r_thigh5			L_thigh1			L_thigh2			L_thigh3			L_thigh4			r.ASIS			r.PSIS			L.ASIS			L.PSIS			C7			R_Shoulder			L_Shoulder			R_Sternum			L_Sternum			R_humerus			R_elbow_med			R_elbow_lat			R_forearm			R_wrist_radius			R_wrist_ulna			L_humerus			L_elbow_med			L_elbow_lat			L_forearm			L_wrist_radius			L_wrist_ulna			R_HJC			L_HJC			R_HJC_reg			L_HJC_reg			
		X1	Y1	Z1	X2	Y2	Z2	X3	Y3	Z3	X4	Y4	Z4	X5	Y5	Z5	X6	Y6	Z6	X7	Y7	Z7	X8	Y8	Z8	X9	Y9	Z9	X10	Y10	Z10	X11	Y11	Z11	X12	Y12	Z12	X13	Y13	Z13	X14	Y14	Z14	X15	Y15	Z15	X16	Y16	Z16	X17	Y17	Z17	X18	Y18	Z18	X19	Y19	Z19	X20	Y20	Z20	X21	Y21	Z21	X22	Y22	Z22	X23	Y23	Z23	X24	Y24	Z24	X25	Y25	Z25	X26	Y26	Z26	X27	Y27	Z27	X28	Y28	Z28	X29	Y29	Z29	X30	Y30	Z30	X31	Y31	Z31	X32	Y32	Z32	X33	Y33	Z33	X34	Y34	Z34	X35	Y35	Z35	X36	Y36	Z36	X37	Y37	Z37	X38	Y38	Z38	X39	Y39	Z39	X40	Y40	Z40	X41	Y41	Z41	X42	Y42	Z42	X43	Y43	Z43	X44	Y44	Z44	X45	Y45	Z45	X46	Y46	Z46	X47	Y47	Z47	X48	Y48	Z48	X49	Y49	Z49	X50	Y50	Z50	X51	Y51	Z51	

99	0.98000000	1179.16715	500.68429	-78.12661	1223.73967	439.98891	-80.61731	1155.61619	108.65730	-102.83935	1099.69960	82.55510	-148.63344	1264.28590	59.72491	-84.12295	1305.10524	91.38358	-133.86507	963.92964	466.94988	-336.57483	981.35300	378.05383	-311.47158	852.36211	99.40483	-307.63327	785.60847	67.35819	-271.91102	950.07139	42.85076	-331.15128	996.70895	53.57520	-271.30280	1205.36516	329.18663	-75.76742	1153.08763	451.13535	-51.89944	1125.25875	337.85527	-53.18163	915.16707	406.41984	-366.71569	882.74248	288.42391	-369.65502	1114.72686	743.35244	-41.79249	1167.64241	642.97061	-52.22614	1119.42614	593.63356	-54.15689	1014.79869	691.42524	-55.17090	1070.79457	594.16621	-79.01259	1055.45656	730.88945	-401.25783	1037.28567	598.18919	-361.99850	946.14149	735.24807	-418.89502	921.32866	614.81351	-359.96640	1092.70018	929.77380	-119.46293	883.84496	946.60163	-197.71483	1103.41879	922.68995	-340.61254	891.20096	947.37199	-278.05823	985.10303	1396.72611	-225.86010	1019.76657	1363.09024	-80.14681	1034.15346	1367.90343	-357.77015	1105.31587	1326.53489	-192.18568	1106.68776	1327.16192	-233.83892	1019.40489	1251.74205	-12.61649	907.79867	1059.45558	-28.92300	939.82991	1064.88663	29.34699	995.63623	989.79653	48.36241	1024.80463	846.34414	51.78512	995.67831	846.38636	76.87470	1055.74585	1274.07943	-431.97601	1042.86160	1044.31527	-440.01195	1071.80546	1076.71732	-492.33913	1162.67737	1017.33531	-493.61027	1247.12633	921.40362	-474.98612	1226.50831	904.68233	-506.68670	1015.67635	838.38018	-124.56028	1022.38792	835.47389	-331.94152	1024.70608	852.90575	-156.72053	1038.03359	854.30070	-302.30070	
100	0.99000000	1190.04205	497.78486	-80.09822	1237.23672	440.02329	-83.00184	1191.30970	104.50835	-101.43249	1136.81480	74.51036	-146.15228	1303.32237	63.50412	-83.62228	1341.62351	97.46145	-134.08697	968.34464	467.24441	-336.57052	984.61368	378.05016	-311.77729	853.05680	100.39349	-307.42634	786.16791	68.86741	-271.66317	950.11278	42.82119	-331.20782	996.51830	53.00906	-271.38788	1226.28306	328.26845	-76.89296	1166.26430	446.75510	-53.32519	1146.04212	331.82905	-53.31304	918.41234	407.22165	-366.50773	884.75468	289.57803	-369.47326	1127.18573	741.00953	-42.20435	1178.88100	640.07837	-53.75016	1130.15732	591.23362	-54.76131	1026.51330	690.07412	-54.51892	1080.97469	592.13802	-78.66750	1064.26720	729.65454	-401.14651	1043.96301	597.31362	-361.74131	954.94531	735.75577	-418.45328	928.38303	615.84224	-359.44740	1105.17143	928.50754	-118.99466	896.10935	945.03670	-196.74766	1115.11599	921.16034	-340.26990	903.17289	945.93314	-277.01210	996.92298	1395.30070	-225.49705	1031.17431	1361.60871	-79.77083	1046.18675	1366.57308	-357.22857	1117.13218	1325.00186	-191.64449	1118.38695	1325.58781	-233.36423	1029.51564	1250.55269	-11.91781	916.31010	1059.39148	-28.66164	947.58059	1064.70149	29.96313	1002.54909	989.22342	50.04654	1030.50663	845.48220	54.41303	1001.27570	845.95308	79.08241	1068.55563	1273.10868	-431.47843	1057.48194	1043.22584	-440.45363	1086.75863	1076.09504	-492.40818	1178.63481	1018.29559	-492.23721	1264.61408	924.11349	-472.03157	1244.90091	907.10267	-503.82036	1028.16608	837.04149	-123.83609	1034.22268	833.94564	-331.23535	1037.20243	851.23017	-156.13249	1050.02187	852.85760	-301.81838	
101	1.00000000	1200.40666	494.53047	-81.79880	1249.90596	439.89675	-85.22385	1225.97323	101.78184	-100.04775	1173.25993	68.13370	-143.80955	1340.75352	68.49687	-83.40592	1376.33346	104.45293	-134.56468	972.84516	467.58888	-336.59168	988.05241	378.04897	-312.13020	853.73148	101.48220	-307.19835	786.75675	70.49487	-271.43810	950.18431	42.79211	-331.27881	996.29927	52.40119	-271.48663	1246.26457	327.69496	-77.91735	1178.93478	442.39593	-54.63450	1166.17491	326.36580	-53.48388	921.84822	408.08887	-366.30247	886.89142	290.81688	-369.32117	1139.53398	738.33452	-42.61767	1189.84295	636.80485	-55.18433	1140.55485	588.47574	-55.07406	1038.08995	688.54505	-53.61183	1090.84433	589.83525	-78.03721	1073.06042	728.38210	-401.15733	1050.66669	596.42571	-361.67413	963.68105	736.34293	-417.77499	935.51535	616.91726	-358.72797	1117.81904	927.06310	-118.46150	908.56270	943.30128	-195.81535	1126.97591	919.49941	-339.87103	915.36064	944.43026	-275.99720	1008.72302	1393.71172	-225.05564	1042.58179	1359.99365	-79.32126	1058.20750	1365.10349	-356.60495	1128.96912	1323.37666	-191.01870	1130.20152	1323.97550	-232.80176	1039.76540	1249.22735	-11.20328	925.07231	1059.18329	-28.35202	955.65559	1064.32357	30.57454	1009.84353	988.52197	51.65670	1036.69549	844.49836	56.89499	1007.28986	845.37436	81.18012	1081.34576	1271.99364	-430.90842	1071.98473	1042.01533	-440.75135	1101.54085	1075.30200	-492.38927	1194.37296	1019.07065	-490.79721	1281.69985	926.58435	-469.05353	1262.92256	909.33795	-500.87208	1040.79257	835.52768	-123.12436	1046.25383	832.30746	-330.53846	1049.88208	849.27010	-155.60041	1062.24191	851.32416	-301.39214	
102	1.01000000	1210.33078	491.03849	-83.17969	1261.79985	439.62182	-87.17575	1259.18679	100.37313	-98.79189	1208.64972	63.30277	-141.87836	1376.16745	74.40628	-83.43112	1408.94273	112.09947	-135.18170	977.51631	467.95522	-336.57312	991.77037	378.02434	-312.49407	854.40462	102.67976	-306.96788	787.37207	72.25653	-271.24876	950.30839	42.76146	-331.36104	996.16251	51.81773	-271.58639	1265.18721	327.43738	-78.78620	1191.09062	438.14207	-55.77717	1185.47062	321.50567	-53.70654	925.59259	409.00332	-366.09353	889.25381	292.12784	-369.19677	1151.77104	735.39590	-43.01202	1200.57619	633.24267	-56.49459	1150.72761	585.45103	-55.17900	1049.56767	686.84694	-52.54305	1100.52930	587.32652	-77.26288	1081.88472	727.07576	-401.27363	1057.47957	595.51685	-361.77431	972.40805	736.98300	-416.83922	942.80589	617.99250	-357.79257	1130.65180	925.42949	-117.88739	921.18175	941.41840	-194.87809	1138.98972	917.69804	-339.45014	927.78257	942.85008	-274.97803	1020.51134	1391.97087	-224.52980	1053.99630	1358.25207	-78.79140	1070.21678	1363.50730	-355.90107	1140.83270	1321.67307	-190.30877	1142.11328	1322.32242	-232.15129	1050.17404	1247.75749	-10.48302	934.10291	1058.78428	-27.99016	964.05833	1063.73211	31.19257	1017.52432	987.66501	53.19929	1043.37305	843.38099	59.24133	1013.67193	844.61876	83.17913	1094.11874	1270.74539	-430.26204	1086.36124	1040.68515	-440.88370	1116.13259	1074.34217	-492.27765	1209.88050	1019.65056	-489.26766	1298.43740	928.80334	-466.07155	1280.54484	911.33244	-497.90451	1053.56930	833.83682	-122.42282	1058.45291	830.55261	-329.85020	1062.68304	847.06710	-155.15652	1074.70686	849.67655	-301.05439	
103	1.02000000	1219.93441	487.45257	-84.23993	1273.01663	439.19565	-88.77670	1290.52589	100.04440	-97.79149	1242.51542	59.79649	-140.61868	1409.14480	80.82263	-83.60806	1439.19900	120.05058	-135.77664	982.46018	468.30438	-336.45990	995.86247	377.94592	-312.83885	855.11948	103.98202	-306.76411	788.02305	74.16654	-271.10839	950.49948	42.72576	-331.45256	996.16841	51.29629	-271.66617	1282.95498	327.40992	-79.47487	1202.74099	434.05038	-56.73166	1203.74329	317.22811	-54.01495	929.75783	409.94165	-365.87444	891.93353	293.49926	-369.10134	1163.92387	732.29144	-43.36495	1211.15898	629.50666	-57.65686	1160.79011	582.27198	-55.17888	1060.99146	685.01367	-51.43907	1110.16039	584.70717	-76.50504	1090.81314	725.73616	-401.45281	1064.49974	594.57435	-361.99512	981.21295	737.63331	-415.66495	950.34790	619.01363	-356.65893	1143.66230	923.60415	-117.29472	933.94409	939.42642	-193.88588	1151.14546	915.76153	-339.03249	940.43610	941.19512	-273.90534	1032.30498	1390.09858	-223.91236	1065.42921	1356.39281	-78.17501	1082.21782	1361.80427	-355.12255	1152.73410	1319.90347	-189.51524	1154.09545	1320.62374	-231.41380	1060.75546	1246.13947	-9.75907	943.41809	1058.15567	-27.56751	972.79087	1062.91566	31.83112	1025.58951	986.63091	54.68599	1050.53357	842.11914	61.47086	1020.41850	843.66736	85.09476	1106.87215	1269.37713	-429.53823	1100.60355	1039.23891	-440.83587	1130.52795	1073.22754	-492.06163	1225.14717	1020.02636	-487.62370	1314.85971	930.75737	-463.10179	1297.74011	913.04445	-494.97317	1066.49900	831.97711	-121.72365	1070.77900	828.69012	-329.16391	1075.55060	844.67817	-154.81174	1087.39795	847.90708	-300.81397	
104	1.03000000	1229.38002	483.92418	-85.02408	1283.69208	438.59179	-89.98392	1319.55022	100.43935	-97.16922	1274.28906	57.32624	-140.21037	1439.27116	87.24001	-83.82391	1466.87542	127.85605	-136.18342	987.80083	468.58827	-336.22997	1000.41120	377.78366	-313.14134	855.93705	105.38083	-306.62230	788.73223	76.24128	-271.03185	950.76396	42.68058	-331.55364	996.32211	50.83674	-271.71156	1299.50925	327.46920	-79.99220	1213.91832	430.15026	-57.51604	1220.83070	313.45888	-54.46267	934.44967	410.87781	-365.63814	895.01225	294.92277	-369.04108	1176.04415	729.13704	-43.65064	1221.70336	625.73160	-58.65603	1170.86102	579.06526	-55.17425	1072.41946	683.10651	-50.43542	1119.87661	582.09444	-75.91436	1099.93327	724.36276	-401.63120	1071.83388	593.58431	-362.27074	990.19767	738.24262	-414.30899	958.23306	619.91755	-355.37919	1156.83055	921.60021	-116.70223	946.83153	937.37466	-192.78753	1163.42990	913.71135	-338.62960	953.28251	939.49367	-272.72954	1044.12923	1388.12595	-223.19663	1076.89344	1354.42980	-77.46546	1094.21927	1360.02219	-354.27602	1164.68744	1318.08405	-188.63652	1166.12798	1318.88243	-230.59002	1071.51144	1244.37917	-9.02000	953.03569	1057.26212	-27.08106	981.86121	1061.87408	32.50132	1034.03996	985.40838	56.12951	1058.17353	840.70600	63.60538	1027.57228	842.51592	86.94017	1119.60076	1267.90487	-428.73866	1114.70755	1037.68230	-440.60314	1144.73207	1071.97661	-491.72440	1240.16198	1020.19290	-485.85144	1330.96360	932.43344	-460.15798	1314.49269	914.45754	-492.11341	1079.57019	829.97174	-121.01597	1083.18107	826.74798	-328.46911	1088.46399	842.16023	-154.54839	1100.25664	846.03449	-300.65020	
